<svg id="Brandmark_-_Colored" data-name="Brandmark - Colored" xmlns="http://www.w3.org/2000/svg" viewBox="0 0 3354.3 3857.85"><path d="M976.32,3390.85a1314.51,1314.51,0,0,1-474.87-576.62,1298.8,1298.8,0,0,1-101.24-442.48H210a1508.29,1508.29,0,0,0,29,234.72,1492.84,1492.84,0,0,0,225.82,536.67,1504.47,1504.47,0,0,0,660.05,543.5,1493.48,1493.48,0,0,0,516.49,116.44v-190.2a1303,1303,0,0,1-665-222Z" style="fill:#63bcc9"/><path d="M1012.45,3000.55a981.09,981.09,0,0,1-286.17-628.8H535.92A1169.12,1169.12,0,0,0,734.7,2961.1a1177.93,1177.93,0,0,0,516.79,425.53,1164.63,1164.63,0,0,0,389.86,90.45V3286.72a981,981,0,0,1-628.9-286.17Z" style="fill:#63bcc9"/><path d="M1243,2770a656.23,656.23,0,0,1-189.54-398.23H862.75a848.11,848.11,0,0,0,778.6,778.53V2959.53A656.25,656.25,0,0,1,1243,2770Z" style="fill:#63bcc9"/><path d="M2405.16,1607.83a981.09,981.09,0,0,1,286.17,628.8h190.36a1169.13,1169.13,0,0,0-198.78-589.34,1178.1,1178.1,0,0,0-516.79-425.54,1164.44,1164.44,0,0,0-389.65-90.43v190.36a981.12,981.12,0,0,1,628.69,286.15Z" style="fill:#63bcc9"/><path d="M2174.62,1838.4a656.2,656.2,0,0,1,189.53,398.23h190.76a848.08,848.08,0,0,0-778.44-778.51v190.76a656.18,656.18,0,0,1,398.15,189.52Z" style="fill:#63bcc9"/><path d="M2441.49,1217.54a1314.37,1314.37,0,0,1,474.87,576.62,1298.75,1298.75,0,0,1,101.24,442.47h190.19A1498.37,1498.37,0,0,0,1776.47,805.31V995.5a1303.13,1303.13,0,0,1,665,222Z" style="fill:#63bcc9"/><path d="M2691.33,2371.75a983.83,983.83,0,0,1-914.86,915v190.36a1169.08,1169.08,0,0,0,589.24-198.77,1177.93,1177.93,0,0,0,425.53-516.79,1164.61,1164.61,0,0,0,90.45-389.76Z" style="fill:#595baf"/><path d="M2364.15,2371.75a658.18,658.18,0,0,1-587.68,587.76v190.76a848.1,848.1,0,0,0,778.44-778.52Z" style="fill:#595baf"/><path d="M3017.6,2371.75a1303.13,1303.13,0,0,1-222,665,1314.51,1314.51,0,0,1-576.62,474.87,1298.5,1298.5,0,0,1-442.47,101.23v190.2a1502.18,1502.18,0,0,0,1314.88-914.84,1493.48,1493.48,0,0,0,116.44-516.49Z" style="fill:#595baf"/><path d="M1641.63,990.42V802.7H1180.3l4,295.64c0,64,25.2,122.68,71,165.24,44.89,41.75,105.66,64.74,171.11,64.74h215.26V1140.57h-266.4V990.42Z" style="fill:#595baf"/><path d="M392.1,60.1c-50.32,0-96.3,18.27-129.48,51.42S211.17,190.66,211.17,241V2236.67H398.89V334.8a87.14,87.14,0,0,1,87-87h699.13v109c0,101.3,84.5,183.71,185.9,183.71h3.46V60.1Z" style="fill:#595baf"/><path d="M1374.44,1522.2a845.74,845.74,0,0,0-269.75,181.85q-29.48,29.48-55.72,61.35v-893a339.91,339.91,0,0,0-31.59-143c-20-43.5-48.49-82.76-84.66-116.69-15.73-14.75-102.49-102-239.15-107.46H529.84V2236.67H720V693.39c80.49,1.33,139.32,66.88,139.32,148.09V2230.3c-.18,2.11-.37,4.22-.53,6.33h.53v0H1049v0h.53a659.9,659.9,0,0,1,399-539.44c60.46-25.57,127.76-41.74,192.9-48.33V1458.11C1550.61,1465.21,1458.44,1486.67,1374.44,1522.2Z" style="fill:#595baf"/><circle cx="2241.7" cy="2474.1" r="50.88" transform="translate(-729.28 951.06) rotate(-20.68)" style="fill:#595baf"/><path d="M1702.74,1839.3A464.34,464.34,0,0,0,1356.46,1997s8.79-2.34,18.3,3.93c19.68,13,16,30.27,7.17,49.89l-80.61,181.72c-8.64,19.69-19,34.06-41.79,28.17-11-2.84-15.2-10.92-15.2-10.92a464.35,464.35,0,0,0,115.56,362.51,459.23,459.23,0,0,0,34.17,34.48l357.18-805.25A463,463,0,0,0,1702.74,1839.3Zm-92.34,175.6-182.33,411c-11.35,25.58-38.89,37.43-67.54,38-36.6.67-73.82-20.57-73.82-20.57l241.7-544.9s40.73,13.33,64.8,40.92C1612,1961,1621.75,1989.32,1610.4,2014.9Z" style="fill:#63bcc9"/><path d="M1871.35,1869.56l-.36-.13-80.4,181.18s21.83,17.56,41,25c20.57,8,48.48,2.87,57.18-16.75l41.92-93.23s43,14.82,65.11,41.58c31.89,38.67,20.27,67,15.73,77.34L1748.94,2676.5c-4.59,10.28-17.81,37.93-67.89,40.25-34.64,1.6-74.52-20.35-74.52-20.35l41-93.65c8.7-19.62-6.2-43.77-26-53.63-18.38-9.17-46-13.57-46-13.57l-80.35,181.21.34.18c166.79,85.95,376.36,65.31,524.5-66.92a465.79,465.79,0,0,0,114.85-156.42l0-.1h0a.64.64,0,0,0,0-.1,465.5,465.5,0,0,0,38.86-190.12C2172.37,2104.71,2047,1935.51,1871.35,1869.56ZM2006,2571c-11.35,25.58-38.89,37.43-67.54,38-36.6.68-73.82-20.56-73.82-20.56l159.17-358.83s40.73,13.33,64.79,40.91c18.84,21.59,28.54,50,17.2,75.54Z" style="fill:#63bcc9"/><path d="M1813.78,2145.93c-20.9-9.19-44.25-3.07-51.78,14L1637.32,2441c-7.59,17,3.54,38.45,24.39,47.77,16.76,7.27,34.35,5.25,45.13-4.38a28,28,0,0,0,6.87-9.54l124.65-281a28.09,28.09,0,0,0,2.46-11.49C1840.72,2167.88,1830.42,2153.48,1813.78,2145.93Z" style="fill:#63bcc9"/></svg>