<svg xmlns="http://www.w3.org/2000/svg" viewBox="0 0 5125.38 2800.94"><g id="Main_Logo" data-name="Main Logo"><g id="BEAT"><path d="M2423.83,1718.14h332.05c153.25,0,249,95.78,249,218.38,0,93.23-57.47,155.8-118.77,182.62,92,24.27,176.24,100.89,176.24,238.82,0,158.36-108.56,266.91-314.17,266.91H2423.83Zm297.57,352.47c76.62,0,114.93-42.14,114.93-100.89,0-62.57-39.59-98.33-117.49-98.33h-120v199.22Zm16.6,401c102.16,0,150.69-51.08,150.69-131.54,0-79.18-48.53-134.1-153.25-134.1H2598.8v265.64Z" style="fill:#595baf"/><path d="M3133.88,1718.14h513.39v160.91H3308.84v210.72h284.79v158.36H3308.84V2464h349.93v160.91H3133.88Z" style="fill:#595baf"/><path d="M4313.91,2461.4H3928.23l-60,163.47h-189l348.65-906.73H4213L4563,2624.87h-189l-60-163.47m-58.74-160.91-134.1-364-134.09,364h268.19" style="fill:#595baf"/><path d="M4656.17,1879.05H4437.79V1718.14h611.73v160.91H4831.13v745.82h-175Z" style="fill:#595baf"/></g><g id="the"><path d="M2423,1432.93V1082.09h-96.52V942.54H2423V769.07h176.07V942.54h139.55v139.55H2599.08v322.15c0,35.22,19.56,69.13,77,69.13,15.65,0,39.13-2.61,63.91-10.44v134.34c-26.09,23.48-75.65,31.3-118.69,31.3C2506.48,1628.57,2423,1572.49,2423,1432.93Z" style="fill:#63bcc9"/><path d="M2813,694.73h174.77v340.41c37.82-60,105.65-105.64,207.38-105.64,139.55,0,256.93,86.08,256.93,292.15v399.1H3277.26V1250.34c0-99.12-53.47-164.33-144.77-164.33-90,0-144.77,65.21-144.77,164.33v370.41H2813Z" style="fill:#63bcc9"/><path d="M3519.84,1281.64c0-228.24,169.55-352.14,343-352.14,172.16,0,367.79,121.29,330,420H3685.48c24.78,92.6,105.65,140.86,207.37,140.86,66.52,0,125.21-18.26,174.77-61.3l79.56,84.78c-56.08,70.43-153.9,120-273.89,120C3686.78,1633.79,3519.84,1507.28,3519.84,1281.64Zm517.79-60c-10.44-96.52-91.3-144.77-173.47-144.77-80.86,0-159.12,46.95-181.29,144.77Z" style="fill:#63bcc9"/></g><path d="M622.68,2458.13A954.18,954.18,0,0,1,278,2039.54a942.76,942.76,0,0,1-73.49-321.21H66.4A1087.72,1087.72,0,0,0,1105.46,2757.38V2619.31a946,946,0,0,1-482.78-161.18Z" style="fill:#63bcc9"/><path d="M648.91,2174.8a712.22,712.22,0,0,1-207.74-456.47H303a848.83,848.83,0,0,0,144.3,427.83,855.31,855.31,0,0,0,375.16,308.91,845.57,845.57,0,0,0,283,65.66V2382.54A712.25,712.25,0,0,1,648.91,2174.8Z" style="fill:#63bcc9"/><path d="M816.31,2007.42a476.35,476.35,0,0,1-137.59-289.09H540.24a615.67,615.67,0,0,0,565.22,565.16V2145a476.29,476.29,0,0,1-289.15-137.59Z" style="fill:#63bcc9"/><path d="M1659.94,1163.77a712.16,712.16,0,0,1,207.74,456.47h138.19a848.82,848.82,0,0,0-144.3-427.84,855.31,855.31,0,0,0-375.16-308.91,845.68,845.68,0,0,0-282.87-65.65V956a712.2,712.2,0,0,1,456.4,207.74Z" style="fill:#63bcc9"/><path d="M1492.58,1331.14a476.4,476.4,0,0,1,137.59,289.1h138.48a615.66,615.66,0,0,0-565.11-565.16v138.48a476.3,476.3,0,0,1,289,137.58Z" style="fill:#63bcc9"/><path d="M1686.32,880.43A954.18,954.18,0,0,1,2031,1299a942.76,942.76,0,0,1,73.49,321.22H2242.6A1087.72,1087.72,0,0,0,1203.54,581.18V719.25a946,946,0,0,1,482.78,161.18Z" style="fill:#63bcc9"/><path d="M1867.68,1718.33a714.21,714.21,0,0,1-664.14,664.2v138.19a848.49,848.49,0,0,0,427.76-144.3,855,855,0,0,0,308.91-375.16,845.31,845.31,0,0,0,65.66-282.93Z" style="fill:#595baf"/><path d="M1630.17,1718.33A477.76,477.76,0,0,1,1203.54,2145v138.48a615.68,615.68,0,0,0,565.11-565.15Z" style="fill:#595baf"/><path d="M2104.53,1718.33a946,946,0,0,1-161.18,482.77,954.18,954.18,0,0,1-418.59,344.72,942.76,942.76,0,0,1-321.22,73.49v138.07A1087.72,1087.72,0,0,0,2242.6,1718.33Z" style="fill:#595baf"/><path d="M1105.66,715.56V579.28H770.76l2.91,214.62c0,46.46,18.29,89.06,51.51,120,32.59,30.3,76.7,47,124.22,47h156.26V824.56H912.27v-109Z" style="fill:#595baf"/><path d="M198.58,40.2c-36.53,0-69.92,13.26-94,37.33s-37.35,57.45-37.35,94V1620.26H203.5V239.61a63.26,63.26,0,0,1,63.19-63.18H774.21v79.14c0,73.54,61.34,133.37,134.95,133.37h2.51V40.2Z" style="fill:#595baf"/><path d="M911.69,1101.6a614.12,614.12,0,0,0-195.82,132q-21.39,21.41-40.44,44.54V629.87a246.72,246.72,0,0,0-22.94-103.82A271.58,271.58,0,0,0,591,441.34c-11.42-10.71-74.4-74-173.6-78H298.57V1620.26h138V499.93c58.44,1,101.14,48.56,101.14,107.5V1615.64c-.13,1.53-.26,3.06-.38,4.6h.38v0H675.43v0h.38a479,479,0,0,1,289.61-391.61c43.9-18.56,92.75-30.3,140-35.08V1055.07C1039.59,1060.23,972.68,1075.81,911.69,1101.6Z" style="fill:#595baf"/><circle cx="1541.28" cy="1792.62" r="36.93" transform="translate(-533.75 659.8) rotate(-20.68)" style="fill:#595baf"/><path d="M1150,1331.8a337.11,337.11,0,0,0-251.39,114.45,17.61,17.61,0,0,1,13.29,2.85c14.29,9.42,11.59,22,5.2,36.22l-58.51,131.92c-6.28,14.29-13.78,24.72-30.34,20.45a17.66,17.66,0,0,1-11-7.93A338.46,338.46,0,0,0,925.94,1918l259.29-584.56A334.45,334.45,0,0,0,1150,1331.8Zm-67,127.47-132.36,298.4c-8.24,18.57-28.23,27.17-49,27.55-26.57.49-53.59-14.93-53.59-14.93l175.46-395.56s29.57,9.68,47,29.7C1084.18,1420.11,1091.23,1440.7,1083,1459.27Z" style="fill:#63bcc9"/><path d="M1272.43,1353.77l-.27-.1L1213.8,1485.2s15.85,12.75,29.74,18.17c14.94,5.83,35.19,2.09,41.51-12.16l30.43-67.68s31.24,10.76,47.26,30.19c23.16,28.07,14.72,48.66,11.43,56.14l-190.6,429.7c-3.34,7.46-12.94,27.53-49.29,29.21-25.15,1.16-54.1-14.77-54.1-14.77l29.75-68c6.32-14.25-4.5-31.78-18.85-38.94-13.35-6.65-33.43-9.84-33.43-9.84l-58.33,131.54.25.13c121.07,62.4,273.21,47.41,380.75-48.58a337.84,337.84,0,0,0,83.37-113.55l0-.07h0l0-.07a338,338,0,0,0,28.21-138C1491,1524.47,1399.94,1401.64,1272.43,1353.77Zm97.75,509.17c-8.24,18.57-28.23,27.17-49,27.56-26.57.49-53.59-14.93-53.59-14.93l115.55-260.49s29.57,9.67,47,29.7c13.67,15.67,20.71,36.27,12.48,54.84Z" style="fill:#63bcc9"/><path d="M1230.63,1554.39c-15.17-6.67-32.12-2.23-37.59,10.16l-90.5,204c-5.51,12.36,2.56,27.91,17.7,34.68,12.16,5.27,24.93,3.81,32.76-3.18a20.46,20.46,0,0,0,5-6.93l90.48-204a20.37,20.37,0,0,0,1.79-8.35C1250.19,1570.32,1242.71,1559.87,1230.63,1554.39Z" style="fill:#63bcc9"/></g></svg>