<svg xmlns="http://www.w3.org/2000/svg" viewBox="0 0 3354.3 3857.85"><g id="Brandmark_-_White" data-name="Brandmark - White"><path d="M944.56,3390.85A1314.57,1314.57,0,0,1,469.7,2814.23a1298.8,1298.8,0,0,1-101.24-442.48H178.27A1498.37,1498.37,0,0,0,1609.59,3803.08v-190.2a1303.13,1303.13,0,0,1-665-222Z" style="fill:#fff"/><path d="M980.69,3000.55a981,981,0,0,1-286.16-628.8H504.17A1169,1169,0,0,0,702.94,2961.1a1177.86,1177.86,0,0,0,516.8,425.53,1164.57,1164.57,0,0,0,389.85,90.45V3286.72a981,981,0,0,1-628.9-286.17Z" style="fill:#fff"/><path d="M1211.28,2770a656.13,656.13,0,0,1-189.53-398.23H831a848.11,848.11,0,0,0,778.6,778.53V2959.53A656.31,656.31,0,0,1,1211.28,2770Z" style="fill:#fff"/><path d="M2373.41,1607.83a981,981,0,0,1,286.16,628.8h190.36a1169,1169,0,0,0-198.77-589.34,1178,1178,0,0,0-516.8-425.54,1164.39,1164.39,0,0,0-389.65-90.43v190.36a981.11,981.11,0,0,1,628.7,286.15Z" style="fill:#fff"/><path d="M2142.86,1838.4a656.29,656.29,0,0,1,189.54,398.23h190.75a848.06,848.06,0,0,0-778.44-778.51v190.76a656.11,656.11,0,0,1,398.15,189.52Z" style="fill:#fff"/><path d="M2409.74,1217.54a1314.37,1314.37,0,0,1,474.87,576.62,1298.5,1298.5,0,0,1,101.23,442.47H3176A1502.18,1502.18,0,0,0,2261.2,921.75a1493.48,1493.48,0,0,0-516.49-116.44V995.5a1303.13,1303.13,0,0,1,665,222Z" style="fill:#fff"/><path d="M2659.57,2371.75a983.82,983.82,0,0,1-914.86,915v190.36A1169.19,1169.19,0,0,0,2334,3278.3a1177.93,1177.93,0,0,0,425.53-516.79,1164.59,1164.59,0,0,0,90.44-389.76Z" style="fill:#fff"/><path d="M2332.4,2371.75a658.18,658.18,0,0,1-587.69,587.76v190.76a848.1,848.1,0,0,0,778.44-778.52Z" style="fill:#fff"/><path d="M2985.84,2371.75a1303,1303,0,0,1-222,665,1314.51,1314.51,0,0,1-576.62,474.87,1298.56,1298.56,0,0,1-442.48,101.23v190.2A1498.38,1498.38,0,0,0,3176,2371.75Z" style="fill:#fff"/><path d="M1609.88,990.42V802.7H1148.55l4,295.64c0,64,25.2,122.68,71,165.24,44.89,41.75,105.66,64.74,171.11,64.74h215.26V1140.57h-266.4V990.42Z" style="fill:#fff"/><path d="M360.35,60.1C310,60.1,264,78.37,230.87,111.52S179.42,190.66,179.42,241V2236.67H367.13V334.8a87.14,87.14,0,0,1,87-87H1153.3v109c0,101.3,84.49,183.71,185.9,183.71h3.45V60.1Z" style="fill:#fff"/><path d="M1342.68,1522.2a846,846,0,0,0-269.75,181.85q-29.46,29.48-55.71,61.35v-893a339.77,339.77,0,0,0-31.6-143c-20-43.5-48.49-82.76-84.66-116.69-15.72-14.75-102.49-102-239.14-107.46H498.09V2236.67H688.2V693.39c80.5,1.33,139.32,66.88,139.32,148.09V2230.3q-.27,3.16-.53,6.33h.53v0h189.7v0h.53a659.85,659.85,0,0,1,399-539.44c60.46-25.57,127.75-41.74,192.89-48.33V1458.11C1518.86,1465.21,1426.69,1486.67,1342.68,1522.2Z" style="fill:#fff"/><circle cx="2209.95" cy="2474.1" r="50.88" transform="translate(-731.33 939.84) rotate(-20.68)" style="fill:#fff"/><path d="M1671,1839.3A464.37,464.37,0,0,0,1324.7,1997s8.79-2.34,18.31,3.93c19.68,13,16,30.27,7.17,49.89l-80.61,181.72c-8.65,19.69-19,34.06-41.79,28.17-11-2.84-15.21-10.92-15.21-10.92a466.33,466.33,0,0,0,149.73,397l357.19-805.25A463.2,463.2,0,0,0,1671,1839.3Zm-92.35,175.6-182.33,411c-11.34,25.58-38.88,37.43-67.53,38-36.6.67-73.82-20.57-73.82-20.57l241.7-544.9s40.73,13.33,64.79,40.92C1580.29,1961,1590,1989.32,1578.64,2014.9Z" style="fill:#fff"/><path d="M1839.6,1869.56l-.37-.13-80.39,181.18s21.83,17.56,41,25c20.57,8,48.48,2.87,57.18-16.75l41.92-93.23s43,14.82,65.1,41.58c31.9,38.67,20.27,67,15.74,77.34L1717.19,2676.5c-4.59,10.28-17.81,37.93-67.89,40.25-34.65,1.6-74.52-20.35-74.52-20.35l41-93.65c8.7-19.62-6.21-43.77-26-53.63-18.38-9.17-46.06-13.57-46.06-13.57l-80.35,181.21.35.18c166.78,85.95,376.35,65.31,524.49-66.92a465.52,465.52,0,0,0,114.85-156.42.88.88,0,0,0,0-.1h0l.05-.1A465.66,465.66,0,0,0,2142,2303.28C2140.62,2104.71,2015.26,1935.51,1839.6,1869.56ZM1974.25,2571c-11.34,25.58-38.88,37.43-67.53,38-36.6.68-73.82-20.56-73.82-20.56l159.17-358.83s40.73,13.33,64.79,40.91c18.84,21.59,28.54,50,17.19,75.54Z" style="fill:#fff"/><path d="M1782,2145.93c-20.91-9.19-44.25-3.07-51.78,14L1605.57,2441c-7.59,17,3.54,38.45,24.38,47.77,16.76,7.27,34.35,5.25,45.14-4.38a28,28,0,0,0,6.86-9.54l124.65-281a27.94,27.94,0,0,0,2.47-11.49C1809,2167.88,1798.66,2153.48,1782,2145.93Z" style="fill:#fff"/></g></svg>